# This file uses centimeters as units for non-parametric coordinates.

mtllib tabletop.mtl
g default
v -0.600000 -0.050000 0.600000
v 0.600000 -0.050000 0.600000
v -0.600000 0.050000 0.600000
v 0.600000 0.050000 0.600000
v -0.600000 0.050000 -0.600000
v 0.600000 0.050000 -0.600000
v -0.600000 -0.050000 -0.600000
v 0.600000 -0.050000 -0.600000
vt 0.328936 0.027450
vt 0.329081 0.356930
vt -0.000399 0.357074
vt -0.000544 0.027594
vt 0.329084 0.364264
vt 0.329229 0.693744
vt -0.000251 0.693889
vt -0.000396 0.364409
vt 0.995620 0.363972
vt 0.995764 0.693452
vt 0.666285 0.693596
vt 0.666140 0.364116
vt 0.662327 0.307769
vt 0.662472 0.637249
vt 0.332992 0.637394
vt 0.332847 0.307914
vt 0.995472 0.027157
vt 0.995617 0.356637
vt 0.666137 0.356782
vt 0.665992 0.027302
vt 0.662474 0.643072
vt 0.662619 0.972552
vt 0.333139 0.972696
vt 0.332994 0.643216
vn 0.000000 -0.000001 1.000000
vn 0.000000 -0.000001 1.000000
vn 0.000000 -0.000001 1.000000
vn 0.000000 -0.000001 1.000000
vn 0.000000 1.000000 0.000000
vn 0.000000 1.000000 0.000000
vn 0.000000 1.000000 0.000000
vn 0.000000 1.000000 0.000000
vn 0.000000 0.000001 -1.000000
vn 0.000000 0.000001 -1.000000
vn 0.000000 0.000001 -1.000000
vn 0.000000 0.000001 -1.000000
vn 0.000000 -1.000000 0.000000
vn 0.000000 -1.000000 0.000000
vn 0.000000 -1.000000 0.000000
vn 0.000000 -1.000000 0.000000
vn 1.000000 -0.000001 0.000000
vn 1.000000 -0.000000 0.000000
vn 1.000000 -0.000000 0.000000
vn 1.000000 0.000000 0.000000
vn -1.000000 -0.000001 0.000000
vn -1.000000 -0.000000 0.000000
vn -1.000000 -0.000000 0.000000
vn -1.000000 0.000000 0.000000
s 1
g pCube1
usemtl phong3SG
f 1/17/1 2/18/2 3/20/3
f 3/20/3 2/18/2 4/19/4
s 2
f 3/9/5 4/10/6 5/12/7
f 5/12/7 4/10/6 6/11/8
s 3
f 5/21/9 6/22/10 7/24/11
f 7/24/11 6/22/10 8/23/12
s 4
f 7/13/13 8/14/14 1/16/15
f 1/16/15 8/14/14 2/15/16
s 5
f 2/1/17 8/2/18 4/4/19
f 4/4/19 8/2/18 6/3/20
s 6
f 7/5/21 1/6/22 5/8/23
f 5/8/23 1/6/22 3/7/24
